<?xml version="1.0" encoding="UTF-8" standalone="no"?><!DOCTYPE svg PUBLIC "-//W3C//DTD SVG 1.1//EN" "http://www.w3.org/Graphics/SVG/1.1/DTD/svg11.dtd"><svg width="100%" height="100%" viewBox="0 0 70 80" version="1.1" xmlns="http://www.w3.org/2000/svg" xmlns:xlink="http://www.w3.org/1999/xlink" xml:space="preserve" xmlns:serif="http://www.serif.com/" style="fill-rule:evenodd;clip-rule:evenodd;stroke-linejoin:round;stroke-miterlimit:1.41421;"><g id="Logo-SVG" serif:id="Logo SVG"><path d="M34.981,0l34.641,20l0,40l-34.641,20l-34.641,-20l0,-40l34.641,-20Z"/><path id="Logo" d="M43.641,65l-8.66,5l-8.66,-5l0,-10l8.66,5l8.66,-5l0,10Zm-25.981,-5l-8.66,-5l0,-30l25.981,-15l25.981,15l0,30l-8.661,5l0,-30l-17.32,-10l-17.321,10l0,30Zm17.321,-30l8.66,5l0,10l-8.66,5l-8.66,-5l0,-10l8.66,-5Z" style="fill:#fff;"/></g></svg>